<svg width="180" height="20" viewBox="0 0 180 20" fill="none" xmlns="http://www.w3.org/2000/svg">
  <path d="M37.9437 13V0.983L41.4953 0.983C43.8973 0.983 45.0469 1.962 45.0469 4.039V4.502C45.0469 5.773 44.5493 6.562 43.4855 6.974V7.026C44.5836 7.318 45.064 8.21 45.064 9.927V11.335C45.064 12.004 45.0983 12.485 45.3385 13L42.885 13C42.7478 12.674 42.6791 12.502 42.6791 11.318V9.755C42.6791 8.605 42.2845 8.193 41.1693 8.193L40.3457 8.193V13L37.9437 13ZM40.3457 6.099L41.2207 6.099C42.2159 6.099 42.6448 5.687 42.6448 4.76V4.296C42.6448 3.455 42.2845 3.077 41.4781 3.077L40.3457 3.077V6.099ZM46.824 13V0.983L53.361 0.983V3.077L49.2261 3.077V5.859L52.5203 5.859V7.953L49.2261 7.953V10.906L53.361 10.906V13L46.824 13ZM54.8331 13V0.983L58.3675 0.983C60.7867 0.983 61.9363 2.047 61.9363 4.296V5.017C61.9363 7.283 60.7867 8.348 58.3675 8.348L57.2351 8.348V13L54.8331 13ZM57.2351 6.253L58.3675 6.253C59.1911 6.253 59.5342 5.893 59.5342 5.017V4.296C59.5342 3.438 59.1911 3.077 58.3675 3.077L57.2351 3.077V6.253ZM63.3616 13V0.983L66.9132 0.983C69.3152 0.983 70.4648 1.962 70.4648 4.039V4.502C70.4648 5.773 69.9672 6.562 68.9034 6.974V7.026C70.0015 7.318 70.4819 8.21 70.4819 9.927V11.335C70.4819 12.004 70.5162 12.485 70.7565 13L68.3029 13C68.1657 12.674 68.097 12.502 68.097 11.318V9.755C68.097 8.605 67.7024 8.193 66.5872 8.193L65.7636 8.193V13L63.3616 13ZM65.7636 6.099L66.6387 6.099C67.6338 6.099 68.0627 5.687 68.0627 4.76V4.296C68.0627 3.455 67.7024 3.077 66.896 3.077L65.7636 3.077V6.099ZM72.2419 13V0.983L78.7789 0.983V3.077L74.644 3.077V5.859L77.9382 5.859V7.953L74.644 7.953V10.906L78.7789 10.906V13L72.2419 13ZM83.4243 13.172C81.0737 13.172 79.8899 11.85 79.8899 9.876V9.343L82.1547 9.343V9.876C82.1547 10.614 82.5321 11.146 83.39 11.146C84.1449 11.146 84.6425 10.682 84.6425 9.876C84.6425 8.846 84.2307 8.588 82.6008 7.798C80.5419 6.803 79.9413 5.773 79.9413 4.09C79.9413 2.133 81.1767 0.811 83.493 0.811C85.8092 0.811 86.9588 2.133 86.9588 4.125V4.468L84.694 4.468V4.142C84.694 3.386 84.3508 2.837 83.5101 2.837C82.7723 2.837 82.3434 3.318 82.3434 4.056C82.3434 4.983 82.8067 5.258 84.4195 6.03C86.5298 7.043 87.0446 8.107 87.0446 9.824C87.0446 11.85 85.7749 13.172 83.4243 13.172ZM88.5449 13V0.983L95.0819 0.983V3.077L90.947 3.077V5.859L94.2412 5.859V7.953L90.947 7.953V10.906L95.0819 10.906V13L88.5449 13ZM96.554 13V0.983L99.5222 0.983L101.924 7.936V0.983L104.069 0.983V13L101.65 13L98.6987 4.451V13L96.554 13ZM107.91 13V3.077L105.405 3.077V0.983L112.817 0.983V3.077L110.312 3.077V13L107.91 13ZM118.289 13L117.895 10.82L115.201 10.82L114.806 13L112.525 13L115.012 0.983L118.255 0.983L120.743 13L118.289 13ZM115.579 8.76L117.517 8.76L116.539 3.386L115.579 8.76ZM125.105 13V0.983L128.76 0.983C131.093 0.983 132.346 2.168 132.346 4.382V9.601C132.346 11.815 131.093 13 128.76 13L125.105 13ZM127.507 10.906L128.725 10.906C129.583 10.906 129.944 10.528 129.944 9.635V4.348C129.944 3.455 129.583 3.077 128.725 3.077L127.507 3.077V10.906ZM134.019 13V0.983L136.421 0.983V13L134.019 13ZM141.688 13.172C139.441 13.172 138.12 11.901 138.12 9.738V4.279C138.12 2.099 139.441 0.811 141.688 0.811C143.936 0.811 145.257 2.099 145.257 4.279V4.966L142.992 4.966V4.193C142.992 3.386 142.563 2.906 141.757 2.906C140.951 2.906 140.522 3.386 140.522 4.193V9.79C140.522 10.597 140.951 11.077 141.757 11.077C142.563 11.077 142.992 10.597 142.992 9.79V8.313L141.808 8.313V6.133L145.257 6.133V9.738C145.257 11.901 143.936 13.172 141.688 13.172ZM146.921 13V0.983L149.889 0.983L152.291 7.936V0.983L154.436 0.983V13L152.016 13L149.065 4.451V13L146.921 13ZM156.32 13V0.983L158.722 0.983V13L156.32 13ZM160.61 13V0.983L164.264 0.983C166.598 0.983 167.85 2.168 167.85 4.382V9.601C167.85 11.815 166.598 13 164.264 13L160.61 13ZM163.012 10.906L164.23 10.906C165.088 10.906 165.448 10.528 165.448 9.635V4.348C165.448 3.455 165.088 3.077 164.23 3.077L163.012 3.077V10.906ZM174.554 13L174.159 10.82L171.466 10.82L171.071 13L168.789 13L171.277 0.983L174.52 0.983L177.008 13L174.554 13ZM171.843 8.76L173.782 8.76L172.804 3.386L171.843 8.76ZM178.287 13V0.983L181.941 0.983C184.275 0.983 185.527 2.168 185.527 4.382V9.601C185.527 11.815 184.275 13 181.941 13L178.287 13ZM180.689 10.906L181.907 10.906C182.765 10.906 183.125 10.528 183.125 9.635V4.348C183.125 3.455 182.765 3.077 181.907 3.077L180.689 3.077V10.906ZM187.201 13V0.983L193.738 0.983V3.077L189.603 3.077V5.859L192.897 5.859V7.953L189.603 7.953V10.906L193.738 10.906V13L187.201 13Z" fill="white" transform="translate(0, 3)"/>
</svg>
