<svg width="80" height="20" viewBox="0 0 80 20" fill="none" xmlns="http://www.w3.org/2000/svg">
  <rect x="0" y="0" width="73" height="17" rx="8.5" fill="#46BFFD"/>
  <path d="M13.1425 2.09C11.9095 2.09 11.2885 1.397 11.2885 0.362V0.083H12.4765V0.362C12.4765 0.749 12.6745 1.028 13.1245 1.028C13.5205 1.028 13.7815 0.785 13.7815 0.362C13.7815 -0.178 13.5655 -0.313 12.7105 -0.727C11.6305 -1.249 11.3155 -1.789 11.3155 -2.671C11.3155 -3.697 11.9635 -4.39 13.1785 -4.39C14.3935 -4.39 14.9965 -3.697 14.9965 -2.653V-2.473H13.8085V-2.644C13.8085 -3.04 13.6285 -3.328 13.1875 -3.328C12.8005 -3.328 12.5755 -3.076 12.5755 -2.689C12.5755 -2.203 12.8185 -2.059 13.6645 -1.654C14.7715 -1.123 15.0415 -0.565 15.0415 0.335C15.0415 1.397 14.3755 2.09 13.1425 2.09ZM18.4672 2L18.2602 0.857H16.8472L16.6402 2H15.4432L16.7482 -4.3H18.4492L19.7542 2H18.4672ZM17.0452 -0.223H18.0622L17.5492 -3.04L17.0452 -0.223ZM20.4252 2V-4.3H21.6852V2H20.4252ZM22.6752 2V-4.3H24.5742C25.8342 -4.3 26.4372 -3.796 26.4372 -2.725V-2.608C26.4372 -1.96 26.1762 -1.555 25.6272 -1.357V-1.33C26.2662 -1.123 26.5632 -0.646 26.5632 0.155V0.263C26.5632 1.442 25.9602 2 24.6912 2H22.6752ZM23.9352 -1.789H24.4212C24.9432 -1.789 25.1772 -1.996 25.1772 -2.455V-2.572C25.1772 -3.013 24.9882 -3.202 24.5382 -3.202H23.9352V-1.789ZM23.9352 0.902H24.6912C25.1232 0.902 25.3032 0.713 25.3032 0.263V0.092C25.3032 -0.493 25.1052 -0.691 24.4932 -0.691H23.9352V0.902ZM30.016 2L29.809 0.857H28.396L28.189 2H26.992L28.297 -4.3H29.998L31.303 2H30.016ZM28.594 -0.223H29.611L29.098 -3.04L28.594 -0.223ZM33.5912 2V-4.3H35.3642L36.2012 0.092L37.0292 -4.3H38.8022V2H37.6142V-2.689L36.6782 2H35.6252L34.6892 -2.689V2H33.5912ZM44.5053 2L44.2983 0.857H42.8853L42.6783 2H41.4813L42.7863 -4.3H44.4873L45.7923 2H44.5053ZM43.0833 -0.223H44.1003L43.5873 -3.04L43.0833 -0.223ZM46.4633 2V-4.3H47.7233V2H46.4633ZM50.3603 2.09C49.1273 2.09 48.5063 1.397 48.5063 0.362V0.083H49.6943V0.362C49.6943 0.749 49.8923 1.028 50.3423 1.028C50.7383 1.028 50.9993 0.785 50.9993 0.362C50.9993 -0.178 50.7833 -0.313 49.9283 -0.727C48.8483 -1.249 48.5333 -1.789 48.5333 -2.671C48.5333 -3.697 49.1813 -4.39 50.3963 -4.39C51.6113 -4.39 52.2143 -3.697 52.2143 -2.653V-2.473H51.0263V-2.644C51.0263 -3.04 50.8463 -3.328 50.4053 -3.328C50.0183 -3.328 49.7933 -3.076 49.7933 -2.689C49.7933 -2.203 50.0363 -2.059 50.8823 -1.654C51.9893 -1.123 52.2593 -0.565 52.2593 0.335C52.2593 1.397 51.5933 2.09 50.3603 2.09ZM54.7445 1.235V0.317L57.1565 -0.7L54.7445 -1.717V-2.635L58.2455 -1.123V-0.277L54.7445 1.235ZM59.3148 1.235V0.317L61.7268 -0.7L59.3148 -1.717V-2.635L62.8158 -1.123V-0.277L59.3148 1.235Z" fill="#101D54" transform="translate(3.5, 8.5)"/>
</svg>
