<svg width="200" height="40" viewBox="0 0 200 40" fill="none" xmlns="http://www.w3.org/2000/svg">
  <path d="M14.2866 32.483L14.2866 -3.0027L21.3798 -3.0027V32.483L14.2866 32.483ZM26.953 32.483V-3.0027L35.7182 -3.0027L42.8114 17.5283V-3.0027L49.1446 -3.0027V32.483L42.0008 32.483L33.2863 7.2374V32.483L26.953 32.483ZM54.7103 32.483V-3.0027L65.5021 -3.0027C72.3927 -3.0027 76.0913 0.4952 76.0913 7.0347V22.446C76.0913 28.985 72.3927 32.483 65.5021 32.483L54.7103 32.483ZM61.8035 26.298L65.4008 26.298C67.9341 26.298 68.9981 25.183 68.9981 22.547V6.9333C68.9981 4.2972 67.9341 3.1819 65.4008 3.1819L61.8035 3.1819V26.298ZM87.4673 -5.9429L91.9766 -12.7866L99.9818 -12.7866L93.0912 -5.9429L87.4673 -5.9429ZM91.3179 32.99C84.3767 32.99 80.7795 29.188 80.7795 22.75V-3.0027L87.8727 -3.0027V23.155C87.8727 25.589 89.0886 26.805 91.4699 26.805C93.8512 26.805 95.0672 25.589 95.0672 23.155V-3.0027L101.907 -3.0027V22.75C101.907 29.188 98.2591 32.99 91.3179 32.99ZM116.479 32.99C109.537 32.99 106.041 29.086 106.041 23.257V21.685L112.729 21.685V23.257C112.729 25.436 113.844 27.008 116.377 27.008C118.607 27.008 120.076 25.639 120.076 23.257C120.076 20.215 118.86 19.4546 114.047 17.1227C107.967 14.1825 106.193 11.1409 106.193 6.1729C106.193 0.3938 109.841 -3.5096 116.681 -3.5096C123.521 -3.5096 126.916 0.3938 126.916 6.2743V7.2881L120.228 7.2881V6.325C120.228 4.0944 119.215 2.4722 116.732 2.4722C114.553 2.4722 113.287 3.8917 113.287 6.0715C113.287 8.8089 114.655 9.62 119.417 11.9013C125.649 14.8922 127.169 18.0352 127.169 23.105C127.169 29.086 123.42 32.99 116.479 32.99ZM137.326 32.483V3.1819L129.929 3.1819V-3.0027L151.816 -3.0027V3.1819L144.419 3.1819V32.483L137.326 32.483ZM155.745 32.483V-3.0027L166.233 -3.0027C173.326 -3.0027 176.721 -0.1132 176.721 6.0208V7.3895C176.721 11.1409 175.251 13.4728 172.11 14.6894V14.8415C175.353 15.7033 176.771 18.3394 176.771 23.409V27.566C176.771 29.543 176.873 30.962 177.582 32.483L170.337 32.483C169.931 31.52 169.729 31.013 169.729 27.515V22.902C169.729 19.5053 168.563 18.2887 165.27 18.2887L162.838 18.2887V32.483L155.745 32.483ZM162.838 12.104L165.422 12.104C168.361 12.104 169.627 10.8874 169.627 8.1499V6.7812C169.627 4.2972 168.563 3.1819 166.182 3.1819L162.838 3.1819V12.104ZM181.968 32.483V-3.0027L189.062 -3.0027V32.483L181.968 32.483ZM209.885 32.483L208.72 26.045L200.765 26.045L199.6 32.483L192.862 32.483L200.208 -3.0027L209.784 -3.0027L217.13 32.483L209.885 32.483ZM201.88 19.9616L207.605 19.9616L204.717 4.0944L201.88 19.9616Z" fill="white" transform="translate(0, 20)"/>
</svg>
